<svg width="49" height="32" viewBox="0 0 49 32" fill="none" xmlns="http://www.w3.org/2000/svg">
<g clip-path="url(#clip0_85_18)">
<path d="M18.3593 3.96639C19.8722 3.96639 21.3512 4.25717 22.6092 4.80198C23.8672 5.34678 24.8476 6.12112 25.4266 7.02709C26.0056 7.93307 26.1571 8.92997 25.8619 9.89175C25.5668 10.8535 24.8382 11.737 23.7684 12.4304C22.6986 13.1238 21.3355 13.596 19.8517 13.7873C18.3678 13.9786 16.8297 13.8804 15.4319 13.5051C14.0341 13.1299 12.8394 12.4944 11.9989 11.679C11.1583 10.8637 10.7097 9.90509 10.7097 8.92447C10.7097 7.60951 11.5156 6.3484 12.9502 5.41858C14.3848 4.48876 16.3305 3.96639 18.3593 3.96639ZM18.3593 1.98315C16.2412 1.98315 14.1706 2.39026 12.4094 3.15298C10.6483 3.9157 9.27561 4.99978 8.46504 6.26814C7.65446 7.5365 7.44238 8.93217 7.85561 10.2787C8.26883 11.6251 9.28881 12.862 10.7866 13.8327C12.2843 14.8035 14.1925 15.4646 16.27 15.7324C18.3474 16.0002 20.5007 15.8628 22.4576 15.3374C24.4145 14.812 26.0871 13.9224 27.2639 12.7809C28.4406 11.6394 29.0687 10.2973 29.0687 8.92447C29.0687 7.08352 27.9404 5.31797 25.932 4.01622C23.9236 2.71447 21.1996 1.98315 18.3593 1.98315ZM33.6585 29.7484H30.5987V24.7903C30.5987 23.4754 29.7927 22.2143 28.3582 21.2844C26.9236 20.3546 24.9779 19.8323 22.9491 19.8323H13.7695C11.7407 19.8323 9.79501 20.3546 8.36042 21.2844C6.92584 22.2143 6.1199 23.4754 6.1199 24.7903V29.7484H3.06006V24.7903C3.06006 22.9494 4.18837 21.1838 6.19679 19.8821C8.2052 18.5803 10.9292 17.849 13.7695 17.849H22.9491C25.7894 17.849 28.5134 18.5803 30.5218 19.8821C32.5302 21.1838 33.6585 22.9494 33.6585 24.7903V29.7484ZM33.6585 3.96639H48.9577V5.94962H33.6585V3.96639ZM33.6585 8.92447H48.9577V10.9077H33.6585V8.92447ZM33.6585 13.8826H44.368V15.8658H33.6585V13.8826Z" fill="black"/>
</g>
<defs>
<clipPath id="clip0_85_18">
<rect width="48.9575" height="31.7317" fill="white"/>
</clipPath>
</defs>
</svg>
