<svg width="48" height="33" viewBox="0 0 48 33" fill="none" xmlns="http://www.w3.org/2000/svg">
<path d="M24.5339 0.268921C24.255 0.0946449 23.9116 0 23.558 0C23.2044 0 22.861 0.0946449 22.5821 0.268921L0 14.3845L1.95335 16.3648L4.71443 14.6389V30.2334C4.71609 30.9012 5.04776 31.5413 5.63681 32.0135C6.22587 32.4857 7.02433 32.7516 7.85738 32.7529H39.2869C40.12 32.7516 40.9184 32.4857 41.5075 32.0135C42.0965 31.5413 42.4282 30.9012 42.4299 30.2334V14.6503L45.1909 16.3761L47.1443 14.3958L24.5339 0.268921ZM26.7151 30.2334H20.4292V20.1554H26.7151V30.2334ZM29.8581 30.2334V20.1554C29.8572 19.4874 29.5258 18.8469 28.9366 18.3746C28.3473 17.9022 27.5484 17.6366 26.7151 17.6359H20.4292C19.5959 17.6366 18.7969 17.9022 18.2077 18.3746C17.6185 18.8469 17.2871 19.4874 17.2862 20.1554V30.2334H7.85738V12.675L23.5721 2.86149L39.2869 12.6876V30.2334H29.8581Z" fill="#DF700A"/>
</svg>