<svg width="51" height="39" viewBox="0 0 51 39" fill="none" xmlns="http://www.w3.org/2000/svg">
<path d="M25.3854 3.65479C14.0125 3.65479 4.75977 10.7596 4.75977 19.4923C4.75977 28.225 14.0125 35.3299 25.3854 35.3299C36.7582 35.3299 46.011 28.225 46.011 19.4923C46.011 10.7596 36.7582 3.65479 25.3854 3.65479ZM39.5655 26.802H35.0814C34.9425 26.8017 34.806 26.7734 34.6858 26.72C34.5655 26.6665 34.4657 26.5898 34.3962 26.4974L32.7957 24.3898C32.6904 24.252 32.6598 24.0879 32.7105 23.9329L34.184 19.3705C34.2136 19.2786 34.2706 19.1932 34.3507 19.1212C34.4307 19.0491 34.5315 18.9924 34.6451 18.9555L37.4316 18.0494C37.5677 18.0051 37.7173 17.9909 37.8634 18.0084C38.0096 18.0258 38.1464 18.0744 38.2586 18.1484L42.3867 20.8758C42.4884 20.9431 42.5663 21.0291 42.6129 21.1258C42.6596 21.2225 42.6735 21.3267 42.6534 21.4286C42.3115 23.2296 41.4921 24.9576 40.2458 26.5058C40.1754 26.596 40.0757 26.6708 39.9565 26.7227C39.8373 26.7746 39.7026 26.8019 39.5655 26.802ZM13.3392 18.0555L16.1257 18.9616C16.2393 18.9985 16.3401 19.0552 16.4201 19.1273C16.5001 19.1993 16.5572 19.2847 16.5868 19.3766L18.0603 23.939C18.111 24.094 18.0804 24.2581 17.975 24.3959L16.3746 26.4974C16.3051 26.5898 16.2052 26.6665 16.085 26.72C15.9647 26.7734 15.8283 26.8017 15.6894 26.802H11.2053C11.0697 26.802 10.9363 26.7754 10.8179 26.7246C10.6995 26.6738 10.6 26.6006 10.529 26.5119C9.28267 24.9637 8.46323 23.2357 8.12135 21.4347C8.10125 21.3328 8.11517 21.2286 8.16183 21.1319C8.20848 21.0352 8.28633 20.9492 8.38809 20.8819L12.5162 18.1545C12.6279 18.081 12.7641 18.0329 12.9094 18.0154C13.0548 17.9979 13.2036 18.0118 13.3392 18.0555ZM38.8178 11.4129L37.026 15.3251C36.99 15.405 36.9327 15.4783 36.8577 15.5403C36.7828 15.6024 36.6918 15.6517 36.5907 15.6852L33.6575 16.6393C33.5229 16.683 33.3751 16.6973 33.2306 16.6807C33.0861 16.664 32.9503 16.617 32.8384 16.5449L27.2595 12.9517C27.1704 12.8951 27.0985 12.8242 27.0488 12.7439C26.9991 12.6637 26.9729 12.5761 26.972 12.4873V9.93041C26.9721 9.83023 27.0043 9.73161 27.0659 9.64328C27.1275 9.55496 27.2165 9.47966 27.325 9.42406L31.5721 7.25097C31.6829 7.19416 31.8106 7.15971 31.9434 7.1508C32.0761 7.14188 32.2097 7.15879 32.3317 7.19996C34.7755 8.01838 36.9442 9.25372 38.6731 10.8121C38.764 10.8936 38.8252 10.9921 38.8506 11.0976C38.876 11.2031 38.8647 11.3118 38.8178 11.4129ZM19.1977 7.25097L23.4458 9.42406C23.5543 9.47966 23.6433 9.55496 23.7049 9.64328C23.7665 9.73161 23.7987 9.83023 23.7988 9.93041V12.4873C23.7988 12.5762 23.7734 12.6641 23.7244 12.7448C23.6754 12.8254 23.604 12.8968 23.5152 12.954L17.9364 16.5471C17.8244 16.6193 17.6887 16.6663 17.5442 16.683C17.3996 16.6996 17.2519 16.6853 17.1173 16.6416L14.1801 15.6852C14.0783 15.6521 13.9867 15.6031 13.911 15.5412C13.8354 15.4793 13.7774 15.4059 13.7408 15.3258L11.949 11.4137C11.9024 11.3122 11.8917 11.2032 11.9178 11.0975C11.9439 10.9918 12.006 10.8934 12.0977 10.8121C13.8276 9.25215 15.9981 8.01572 18.4441 7.19691C18.5656 7.157 18.6982 7.14103 18.8298 7.15047C18.9614 7.15992 19.0879 7.19446 19.1977 7.25097ZM20.9142 32.1844L18.9577 28.4009C18.913 28.3149 18.8944 28.2222 18.9033 28.1299C18.9123 28.0375 18.9485 27.9479 19.0093 27.8679L20.5136 25.8882C20.5831 25.7959 20.6829 25.7191 20.8032 25.6656C20.9234 25.6122 21.0598 25.5839 21.1988 25.5837H29.572C29.7109 25.5839 29.8474 25.6122 29.9676 25.6656C30.0879 25.7191 30.1877 25.7959 30.2572 25.8882L31.7625 27.8679C31.8234 27.9479 31.8599 28.0374 31.869 28.1298C31.8781 28.2221 31.8596 28.3149 31.815 28.4009L29.8725 32.1829C29.825 32.2754 29.7487 32.3575 29.6503 32.4221C29.552 32.4868 29.4345 32.532 29.3082 32.5537C26.7305 33.008 24.0522 33.008 21.4745 32.5537C21.3491 32.5317 21.2326 32.4865 21.135 32.4222C21.0374 32.3578 20.9616 32.2763 20.9142 32.1844Z" fill="black"/>
</svg>
