<svg width="53" height="49" viewBox="0 0 53 49" fill="none" xmlns="http://www.w3.org/2000/svg">
<g id="mdi:alphabet-b-box">
<path id="Vector" d="M11.535 6.11957H41.6801C42.8223 6.11957 43.9176 6.5494 44.7252 7.31451C45.5328 8.07962 45.9866 9.11733 45.9866 10.1994V38.7579C45.9866 39.84 45.5328 40.8777 44.7252 41.6428C43.9176 42.4079 42.8223 42.8377 41.6801 42.8377H11.535C10.3928 42.8377 9.29746 42.4079 8.48985 41.6428C7.68223 40.8777 7.22852 39.84 7.22852 38.7579V10.1994C7.22852 9.11733 7.68223 8.07962 8.48985 7.31451C9.29746 6.5494 10.3928 6.11957 11.535 6.11957ZM33.0672 21.4188V18.359C33.0672 17.2769 32.6135 16.2392 31.8059 15.4741C30.9983 14.709 29.9029 14.2792 28.7608 14.2792H20.1479V34.6781H28.7608C29.9029 34.6781 30.9983 34.2483 31.8059 33.4832C32.6135 32.7181 33.0672 31.6804 33.0672 30.5983V27.5385C33.0672 25.9066 31.56 24.4786 29.8374 24.4786C31.56 24.4786 33.0672 23.0507 33.0672 21.4188ZM28.7608 30.5983H24.4543V26.5185H28.7608V30.5983ZM28.7608 22.4387H24.4543V18.359H28.7608V22.4387Z" fill="black"/>
</g>
</svg>
