<svg width="31" height="29" viewBox="0 0 31 29" fill="none" xmlns="http://www.w3.org/2000/svg">
<g id="bx:money-withdraw">
<path id="Vector" d="M15.5002 18.125C13.1235 18.125 12.9168 17.0858 12.9168 16.9167H10.3335C10.3335 18.0283 11.186 19.9979 14.2085 20.445V21.75H16.7918V20.445C19.3752 20.0342 20.6668 18.4754 20.6668 16.9167C20.6668 15.5633 19.9952 13.2917 15.5002 13.2917C12.9168 13.2917 12.9168 12.5304 12.9168 12.0833C12.9168 11.6363 13.821 10.875 15.5002 10.875C17.1793 10.875 17.2956 11.6483 17.3085 12.0833H19.8918C19.8744 11.2602 19.5579 10.4671 18.9944 9.83457C18.431 9.20207 17.6542 8.76784 16.7918 8.60333V7.25H14.2085V8.56708C11.6252 8.96583 10.3335 10.5246 10.3335 12.0833C10.3335 13.4367 11.0052 15.7083 15.5002 15.7083C18.0835 15.7083 18.0835 16.53 18.0835 16.9167C18.0835 17.3033 17.2827 18.125 15.5002 18.125Z" fill="black"/>
<path id="Vector_2" d="M6.4585 2.41666H2.5835V4.83332H5.16683V25.375C5.16683 25.6955 5.30292 26.0028 5.54515 26.2294C5.78738 26.456 6.11593 26.5833 6.4585 26.5833H24.5418C24.8844 26.5833 25.2129 26.456 25.4552 26.2294C25.6974 26.0028 25.8335 25.6955 25.8335 25.375V4.83332H28.4168V2.41666H6.4585ZM23.2502 24.1667H7.75016V4.83332H23.2502V24.1667Z" fill="black"/>
</g>
</svg>
