<svg width="31" height="27" viewBox="0 0 31 27" fill="none" xmlns="http://www.w3.org/2000/svg">
<g id="ic:outline-insights">
<path id="Vector" d="M27.1248 9C25.2519 9 24.2057 10.62 24.6319 11.8238L20.0465 15.8287C19.659 15.7275 19.0907 15.7275 18.7032 15.8287L15.4094 12.96C15.8486 11.7563 14.8023 10.125 12.9165 10.125C11.0436 10.125 9.98442 11.745 10.4236 12.96L4.53359 18.0787C3.1515 17.7075 1.2915 18.6187 1.2915 20.25C1.2915 21.4875 2.454 22.5 3.87484 22.5C5.74775 22.5 6.794 20.88 6.36775 19.6762L12.2448 14.5463C12.6323 14.6475 13.2007 14.6475 13.5882 14.5463L16.8819 17.415C16.4428 18.6187 17.489 20.25 19.3748 20.25C21.2478 20.25 22.3069 18.63 21.8678 17.415L26.4661 13.4213C27.8482 13.7925 29.7082 12.8813 29.7082 11.25C29.7082 10.0125 28.5457 9 27.1248 9Z" fill="black"/>
<path id="Vector_2" d="M19.3748 10.125L20.589 7.79625L23.2498 6.75L20.589 5.70375L19.3748 3.375L18.1865 5.70375L15.4998 6.75L18.1865 7.79625L19.3748 10.125ZM4.52067 12.375L5.1665 10.125L7.74984 9.5625L5.1665 9L4.52067 6.75L3.87484 9L1.2915 9.5625L3.87484 10.125L4.52067 12.375Z" fill="black"/>
</g>
</svg>
