<svg width="30" height="22" viewBox="0 0 30 22" fill="none" xmlns="http://www.w3.org/2000/svg">
<g id="Group">
<path id="Vector" opacity="0.2" d="M19 11C19 11.9669 18.7654 12.9122 18.3259 13.7161C17.8864 14.5201 17.2616 15.1467 16.5307 15.5168C15.7998 15.8868 14.9956 15.9836 14.2196 15.795C13.4437 15.6063 12.731 15.1407 12.1716 14.457C11.6122 13.7732 11.2312 12.9021 11.0769 11.9538C10.9225 11.0054 11.0017 10.0224 11.3045 9.12911C11.6072 8.23578 12.1199 7.47224 12.7777 6.93504C13.4355 6.39785 14.2089 6.11112 15 6.11112C16.0609 6.11112 17.0783 6.6262 17.8284 7.54304C18.5786 8.45988 19 9.70339 19 11ZM24 1.22223C24.2117 2.74896 24.8067 4.1574 25.7026 5.25236C26.5985 6.34732 27.7509 7.07458 29 7.33334V1.22223H24ZM24 20.7778H29V14.6667C27.7509 14.9254 26.5985 15.6527 25.7026 16.7477C24.8067 17.8426 24.2117 19.2511 24 20.7778ZM1 14.6667V20.7778H6C5.78828 19.2511 5.19326 17.8426 4.29738 16.7477C3.4015 15.6527 2.24915 14.9254 1 14.6667ZM1 7.33334C2.24915 7.07458 3.4015 6.34732 4.29738 5.25236C5.19326 4.1574 5.78828 2.74896 6 1.22223H1V7.33334Z" fill="black"/>
<path id="Vector_2" d="M15 4.88889C14.0111 4.88889 13.0444 5.2473 12.2221 5.9188C11.3999 6.59029 10.759 7.54472 10.3806 8.66138C10.0022 9.77804 9.90315 11.0068 10.0961 12.1922C10.289 13.3777 10.7652 14.4666 11.4645 15.3212C12.1637 16.1759 13.0546 16.7579 14.0245 16.9937C14.9945 17.2295 15.9998 17.1085 16.9134 16.6459C17.827 16.1834 18.6079 15.4001 19.1573 14.3952C19.7068 13.3902 20 12.2087 20 11C20 9.37923 19.4732 7.82485 18.5355 6.67879C17.5979 5.53274 16.3261 4.88889 15 4.88889ZM15 14.6667C14.4067 14.6667 13.8266 14.4516 13.3333 14.0487C12.8399 13.6458 12.4554 13.0732 12.2284 12.4032C12.0013 11.7332 11.9419 10.9959 12.0576 10.2847C12.1734 9.57341 12.4591 8.92007 12.8787 8.40727C13.2982 7.89448 13.8328 7.54527 14.4147 7.40379C14.9967 7.26231 15.5999 7.33492 16.1481 7.61244C16.6962 7.88996 17.1648 8.35993 17.4944 8.96291C17.8241 9.56589 18 10.2748 18 11C18 11.9725 17.6839 12.9051 17.1213 13.5927C16.5587 14.2804 15.7956 14.6667 15 14.6667ZM29 0H1C0.734784 0 0.48043 0.12877 0.292893 0.357981C0.105357 0.587192 0 0.898069 0 1.22222V20.7778C0 21.1019 0.105357 21.4128 0.292893 21.642C0.48043 21.8712 0.734784 22 1 22H29C29.2652 22 29.5196 21.8712 29.7071 21.642C29.8946 21.4128 30 21.1019 30 20.7778V1.22222C30 0.898069 29.8946 0.587192 29.7071 0.357981C29.5196 0.12877 29.2652 0 29 0ZM2 2.44444H4.67125C4.15549 3.91044 3.19945 5.07893 2 5.70931V2.44444ZM2 19.5556V16.2907C3.19945 16.9211 4.15549 18.0896 4.67125 19.5556H2ZM28 19.5556H25.3288C25.8445 18.0896 26.8005 16.9211 28 16.2907V19.5556ZM28 13.6965C26.8645 14.1069 25.8311 14.8579 24.9938 15.8813C24.1565 16.9046 23.542 18.1677 23.2062 19.5556H6.79375C6.45801 18.1677 5.84351 16.9046 5.00623 15.8813C4.16895 14.8579 3.1355 14.1069 2 13.6965V8.30347C3.1355 7.89312 4.16895 7.14207 5.00623 6.11872C5.84351 5.09538 6.45801 3.83227 6.79375 2.44444H23.2062C23.542 3.83227 24.1565 5.09538 24.9938 6.11872C25.8311 7.14207 26.8645 7.89312 28 8.30347V13.6965ZM28 5.70931C26.8005 5.07893 25.8445 3.91044 25.3288 2.44444H28V5.70931Z" fill="black"/>
</g>
</svg>
