<svg width="38" height="30" viewBox="0 0 38 30" fill="none" xmlns="http://www.w3.org/2000/svg">
<g id="ph:backspace-light">
<path id="Vector" d="M32.0625 4.92188H10.1724C9.81366 4.92201 9.46104 4.99547 9.14889 5.13512C8.83674 5.27476 8.57571 5.47583 8.39119 5.71875L1.61205 14.6379C1.52883 14.7472 1.48486 14.8724 1.48486 15C1.48486 15.1276 1.52883 15.2528 1.61205 15.3621L8.39119 24.2812C8.57571 24.5242 8.83674 24.7252 9.14889 24.8649C9.46104 25.0045 9.81366 25.078 10.1724 25.0781H32.0625C32.6137 25.0781 33.1423 24.9053 33.532 24.5976C33.9217 24.2899 34.1406 23.8726 34.1406 23.4375V6.5625C34.1406 6.12738 33.9217 5.71008 33.532 5.4024C33.1423 5.09473 32.6137 4.92188 32.0625 4.92188ZM32.3594 23.4375C32.3594 23.4997 32.3281 23.5593 32.2724 23.6032C32.2168 23.6472 32.1413 23.6719 32.0625 23.6719H10.1724C10.1209 23.6714 10.0704 23.6604 10.0259 23.6398C9.98135 23.6193 9.94439 23.5899 9.91861 23.5547L3.41408 15L9.91861 6.44531C9.94439 6.41006 9.98135 6.38071 10.0259 6.36017C10.0704 6.33962 10.1209 6.32858 10.1724 6.32812H32.0625C32.1413 6.32812 32.2168 6.35282 32.2724 6.39677C32.3281 6.44073 32.3594 6.50034 32.3594 6.5625V23.4375ZM24.3794 12.6844L21.4463 15L24.3794 17.3156C24.4669 17.38 24.5371 17.4576 24.5858 17.5439C24.6344 17.6301 24.6606 17.7232 24.6627 17.8176C24.6648 17.912 24.6428 18.0058 24.598 18.0934C24.5532 18.1809 24.4866 18.2605 24.402 18.3272C24.3174 18.394 24.2167 18.4466 24.1058 18.482C23.9949 18.5174 23.8761 18.5347 23.7565 18.5331C23.6369 18.5314 23.519 18.5107 23.4098 18.4723C23.3005 18.4339 23.2022 18.3785 23.1206 18.3094L20.1875 15.9937L17.2544 18.3094C17.0856 18.4336 16.8623 18.5012 16.6315 18.498C16.4008 18.4948 16.1806 18.421 16.0175 18.2921C15.8543 18.1633 15.7608 17.9895 15.7567 17.8074C15.7527 17.6252 15.8383 17.4489 15.9956 17.3156L18.9288 15L15.9956 12.6844C15.8383 12.5511 15.7527 12.3748 15.7567 12.1926C15.7608 12.0105 15.8543 11.8367 16.0175 11.7079C16.1806 11.579 16.4008 11.5052 16.6315 11.502C16.8623 11.4988 17.0856 11.5664 17.2544 11.6906L20.1875 14.0062L23.1206 11.6906C23.2895 11.5664 23.5128 11.4988 23.7435 11.502C23.9742 11.5052 24.1944 11.579 24.3576 11.7079C24.5207 11.8367 24.6142 12.0105 24.6183 12.1926C24.6224 12.3748 24.5367 12.5511 24.3794 12.6844Z" fill="black"/>
</g>
</svg>
